<?xml version="1.0" encoding="utf-8"?>
<svg id="master-artboard" viewBox="0 0 336 235.2" version="1.1" xmlns="http://www.w3.org/2000/svg" x="0px" y="0px" style="enable-background:new 0 0 336 235.2;" width="336px" height="235.1999969482422px">

<linearGradient id="SVGID_1_" gradientUnits="userSpaceOnUse" x1="167.9558" y1="0.2789" x2="167.9558" y2="132.933">
		<stop offset="0" style="stop-color:#A1BBA7"/>
		<stop offset="0.8858" style="stop-color:#BFDFC6"/>
	</linearGradient>


<path class="st4" d="M333.2,121.2c-0.6,0.9-1.6,1.5-3.1,1.5c-33.1-0.1-70.2-2.9-98.5-22c-0.5-0.3-0.8-0.7-1.1-1c-0.1,0-0.2,0-0.3,0&#10;&#9;&#9;c-2.4,0-3.7-1.8-3.8-3.7c-0.1,0-0.1,0-0.1,0c-28.4,18-97.3,30-97.3,30l87.7,63.9h104.1l15.2-68.6&#10;&#9;&#9;C335.1,121.2,334.2,121.2,333.2,121.2z" style="fill: rgb(115, 201, 182);" transform="matrix(1, 0, 0, 0.9999999999999999, 0, 0)"/>
<path class="st5" d="M226.3,95.9c0,0,9.8,35.1-20.4,49.9l52.1,11.9l59.5-34.9C317.6,122.8,253.4,110.6,226.3,95.9z" style="fill: rgb(98, 176, 159);" transform="matrix(1, 0, 0, 0.9999999999999999, 0, 0)"/>


<g transform="matrix(1, 0, 0, 0.9999999999999999, 0, 0)">
		<path d="M 23.399999618530273 149.6999969482422 L 14.100000381469727 189 L 31.899999618530273 189 Z" class="st3" style="fill: rgb(77, 88, 88);"/>
	</g><path d="M 23.4 149.699997 L 28.799999 189 L 31.9 189" class="st9" style="fill: rgb(255, 255, 255); opacity: 0.2;" transform="matrix(1, 0, 0, 0.9999999999999999, 0, 0)"/>
<g transform="matrix(1, 0, 0, 0.9999999999999999, 0, 0)">
		<path d="M 45.900001525878906 129.89999389648438 L 32.79999923706055 185.3000030517578 L 57.900001525878906 185.3000030517578 Z" class="st3" style="fill: rgb(77, 88, 88);"/>
	</g><path d="M 45.900002 129.899994 L 53.599998 185.300003 L 57.900002 185.300003" class="st9" style="fill: rgb(255, 255, 255); opacity: 0.2;" transform="matrix(1, 0, 0, 0.9999999999999999, 0, 0)"/>
<g transform="matrix(1, 0, 0, 0.9999999999999999, 0, 0)">
		<path d="M 161.10000610351562 108.4000015258789 L 148 163.8000030517578 L 173.1999969482422 163.8000030517578 Z" class="st3" style="fill: rgb(77, 88, 88);"/>
	</g><path d="M 161.100006 108.400002 L 168.800003 163.800003 L 173.199997 163.800003" class="st9" style="fill: rgb(255, 255, 255); opacity: 0.2;" transform="matrix(1, 0, 0, 0.9999999999999999, 0, 0)"/>
<path class="st10" d="M0.1,194.8c0,0,60.8-32,172.8-34.6c112.1-2.7,122.6-57.9,163-61.9v136.7H0.1" style="fill: rgb(223, 220, 205);" transform="matrix(1, 0, 0, 0.9999999999999999, 0, 0)"/>
<path d="M 185.60000610351562 151.6999969482422 L 174.1999969482422 199.89999389648438 L 196.10000610351562 199.89999389648438 Z" class="st3" style="fill: rgb(77, 88, 88);" transform="matrix(1, 0, 0, 0.9999999999999999, 0, 0)"/>
<path d="M 196.100006 199.899994 L 167 213.600006 L 174.199997 199.899994" class="st11" style="fill: rgb(182, 202, 192);" transform="matrix(1, 0, 0, 0.9999999999999999, 0, 0)"/>
<path d="M 185.600006 151.699997 L 192.300003 199.899994 L 196.100006 199.899994" class="st9" style="fill: rgb(255, 255, 255); opacity: 0.2;" transform="matrix(1, 0, 0, 0.9999999999999999, 0, 0)"/>
<path d="M 215.6999969482422 151.1999969482422 L 206.89999389648438 188.3000030517578 L 223.8000030517578 188.3000030517578 Z" class="st3" style="fill: rgb(77, 88, 88);" transform="matrix(1, 0, 0, 0.9999999999999999, 0, 0)"/>
<path d="M 223.800003 188.300003 L 201.300003 198.899994 L 206.899994 188.300003" class="st11" style="fill: rgb(182, 202, 192);" transform="matrix(1, 0, 0, 0.9999999999999999, 0, 0)"/>
<path d="M 215.699997 151.199997 L 220.899994 188.300003 L 223.800003 188.300003" class="st9" style="fill: rgb(255, 255, 255); opacity: 0.2;" transform="matrix(1, 0, 0, 0.9999999999999999, 0, 0)"/>

<g transform="matrix(1, 0, 0, 0.9999999999999999, 0, 0)">
		<path d="M 119.69999694824219 95.9000015258789 L 116.4000015258789 110 L 122.80000305175781 110 Z" class="st7" style="fill: rgb(91, 159, 144);"/>
	</g><path d="M 119.699997 95.900002 L 121.699997 110 L 122.800003 110" class="st7" style="fill: rgb(91, 159, 144); opacity: 0.2;" transform="matrix(1, 0, 0, 0.9999999999999999, 0, 0)"/>
<g transform="matrix(1, 0, 0, 0.9999999999999999, 0, 0)">
		<path d="M 133.1999969482422 100.5999984741211 L 129.89999389648438 114.69999694824219 L 136.3000030517578 114.69999694824219 Z" class="st7" style="fill: rgb(91, 159, 144);"/>
	</g><path d="M 133.199997 100.599998 L 135.199997 114.699997 L 136.300003 114.699997" class="st7" style="fill: rgb(91, 159, 144); opacity: 0.2;" transform="matrix(1, 0, 0, 0.9999999999999999, 0, 0)"/>
<g transform="matrix(1, 0, 0, 0.9999999999999999, 0, 0)">
		<path d="M 129.10000610351562 101.30000305175781 L 125.80000305175781 115.4000015258789 L 132.1999969482422 115.4000015258789 Z" class="st7" style="fill: rgb(91, 159, 144);"/>
	</g><path d="M 129.100006 101.300003 L 131.100006 115.400002 L 132.199997 115.400002" class="st7" style="fill: rgb(91, 159, 144); opacity: 0.2;" transform="matrix(1, 0, 0, 0.9999999999999999, 0, 0)"/>
<g transform="matrix(1, 0, 0, 0.9999999999999999, 0, 0)">
		<path d="M 139.60000610351562 105.4000015258789 L 136.3000030517578 119.4000015258789 L 142.6999969482422 119.4000015258789 Z" class="st7" style="fill: rgb(91, 159, 144);"/>
	</g><path d="M 139.600006 105.400002 L 141.600006 119.400002 L 142.699997 119.400002" class="st7" style="fill: rgb(91, 159, 144); opacity: 0.2;" transform="matrix(1, 0, 0, 0.9999999999999999, 0, 0)"/>
<g transform="matrix(1, 0, 0, 0.9999999999999999, 0, 0)">
		<path d="M 182.5 122.80000305175781 L 179.1999969482422 136.89999389648438 L 185.60000610351562 136.89999389648438 Z" class="st7" style="fill: rgb(91, 159, 144);"/>
	</g><path d="M 182.5 122.800003 L 184.5 136.899994 L 185.600006 136.899994" class="st7" style="fill: rgb(91, 159, 144); opacity: 0.2;" transform="matrix(1, 0, 0, 0.9999999999999999, 0, 0)"/>
<g transform="matrix(1, 0, 0, 0.9999999999999999, 0, 0)">
		<path d="M 188 126.80000305175781 L 184.6999969482422 140.89999389648438 L 191.10000610351562 140.89999389648438 Z" class="st7" style="fill: rgb(91, 159, 144);"/>
	</g><path d="M 188 126.800003 L 189.899994 140.899994 L 191.100006 140.899994" class="st7" style="fill: rgb(91, 159, 144); opacity: 0.2;" transform="matrix(1, 0, 0, 0.9999999999999999, 0, 0)"/>
<g transform="matrix(1, 0, 0, 0.9999999999999999, 0, 0)">
		<path d="M 240 93.5 L 237.6999969482422 102.9000015258789 L 242 102.9000015258789 Z" class="st5" style="fill: rgb(98, 176, 159);"/>
	</g><path d="M 240 93.5 L 241.300003 102.900002 L 242 102.900002" class="st5" style="fill: rgb(98, 176, 159); opacity: 0.2;" transform="matrix(1, 0, 0, 0.9999999999999999, 0, 0)"/>
<g transform="matrix(1, 0, 0, 0.9999999999999999, 0, 0)">
		<path d="M 247 95.9000015258789 L 244.6999969482422 105.4000015258789 L 249 105.4000015258789 Z" class="st5" style="fill: rgb(98, 176, 159);"/>
	</g><path d="M 247 95.900002 L 248.300003 105.400002 L 249 105.400002" class="st5" style="fill: rgb(98, 176, 159); opacity: 0.2;" transform="matrix(1, 0, 0, 0.9999999999999999, 0, 0)"/>
<g transform="matrix(1, 0, 0, 0.9999999999999999, 0, 0)">
		<path d="M 261.1000061035156 100.5999984741211 L 258.79998779296875 110.0999984741211 L 263.1000061035156 110.0999984741211 Z" class="st5" style="fill: rgb(98, 176, 159);"/>
	</g><path d="M 261.100006 100.599998 L 262.399994 110.099998 L 263.100006 110.099998" class="st5" style="fill: rgb(98, 176, 159); opacity: 0.2;" transform="matrix(1, 0, 0, 0.9999999999999999, 0, 0)"/>
<g transform="matrix(1, 0, 0, 0.9999999999999999, 0, 0)">
		<path d="M 243.8000030517578 97 L 241.60000610351562 106.5 L 245.89999389648438 106.5 Z" class="st5" style="fill: rgb(98, 176, 159);"/>
	</g><path d="M 243.800003 97 L 245.100006 106.5 L 245.899994 106.5" class="st5" style="fill: rgb(98, 176, 159); opacity: 0.2;" transform="matrix(1, 0, 0, 0.9999999999999999, 0, 0)"/>
<g transform="matrix(1, 0, 0, 0.9999999999999999, 0, 0)">
		<path d="M 250.8000030517578 99.5 L 248.60000610351562 109 L 252.89999389648438 109 Z" class="st5" style="fill: rgb(98, 176, 159);"/>
	</g><path d="M 250.800003 99.5 L 252.100006 109 L 252.899994 109" class="st5" style="fill: rgb(98, 176, 159); opacity: 0.2;" transform="matrix(1, 0, 0, 0.9999999999999999, 0, 0)"/>
<g transform="matrix(1, 0, 0, 0.9999999999999999, 0, 0)">
		<path d="M 264.8999938964844 104.19999694824219 L 262.70001220703125 113.69999694824219 L 267 113.69999694824219 Z" class="st5" style="fill: rgb(98, 176, 159);"/>
	</g><path d="M 264.899994 104.199997 L 266.200012 113.699997 L 267 113.699997" class="st5" style="fill: rgb(98, 176, 159); opacity: 0.2;" transform="matrix(1, 0, 0, 0.9999999999999999, 0, 0)"/>
<path d="M 309.6000061035156 235.10000610351562 L 279.79998779296875 98.4000015258789 L 247.5 235.10000610351562 Z" class="st12" style="fill: rgb(72, 83, 83);" transform="matrix(1, 0, 0, 0.9999999999999999, 0, 0)"/>
<path d="M 256.200012 198.300003 L 300.700012 193.300003 L 304.5 211.600006 L 253.699997 208.800003" class="st13" style="fill: rgb(44, 51, 52);" transform="matrix(1, 0, 0, 0.9999999999999999, 0, 0)"/>
<path d="M 263.200012 169.100006 L 294.5 165.600006 L 296.200012 172.399994 L 262.5 175.399994" class="st13" style="fill: rgb(44, 51, 52);" transform="matrix(1, 0, 0, 0.9999999999999999, 0, 0)"/>
<path d="M 270.899994 136.100006 L 288.299988 137.100006 L 290.299988 145.800003 L 269.700012 140.899994" class="st13" style="fill: rgb(44, 51, 52);" transform="matrix(1, 0, 0, 0.9999999999999999, 0, 0)"/>
<path d="M 309.79998779296875 235.10000610351562 L 280 98.80000305175781 L 298.8999938964844 235.10000610351562 Z" class="st9" style="fill: rgb(255, 255, 255); opacity: 0.2;" transform="matrix(1, 0, 0, 0.9999999999999999, 0, 0)"/>
<path d="M 149 235.10000610351562 L 130 147.6999969482422 L 109.30000305175781 235.10000610351562 Z" class="st12" style="fill: rgb(72, 83, 83);" transform="matrix(1, 0, 0, 0.9999999999999999, 0, 0)"/>
<path d="M 112.599998 221 L 145.899994 221 L 148 230.699997 L 111.5 225.800003" class="st13" style="fill: rgb(44, 51, 52);" transform="matrix(1, 0, 0, 0.9999999999999999, 0, 0)"/>
<path d="M 117.800003 199.5 L 140.5 195.5 L 142 202 L 117.300003 201.399994" class="st13" style="fill: rgb(44, 51, 52);" transform="matrix(1, 0, 0, 0.9999999999999999, 0, 0)"/>
<path d="M 123.400002 175.399994 L 136.199997 176.100006 L 137 180 L 122.300003 180" class="st13" style="fill: rgb(44, 51, 52);" transform="matrix(1, 0, 0, 0.9999999999999999, 0, 0)"/>
<path d="M 149.10000610351562 235.10000610351562 L 130.10000610351562 148.10000610351562 L 142.1999969482422 235.10000610351562 Z" class="st9" style="fill: rgb(255, 255, 255); opacity: 0.2;" transform="matrix(1, 0, 0, 0.9999999999999999, 0, 0)"/>
<path d="M 102.5999984741211 235.10000610351562 L 79.4000015258789 128.8000030517578 L 54.29999923706055 235.10000610351562 Z" class="st12" style="fill: rgb(72, 83, 83);" transform="matrix(1, 0, 0, 0.9999999999999999, 0, 0)"/>
<path d="M 59.599998 212.5 L 97.300003 210.100006 L 100.099998 223.5 L 58.299999 218.899994" class="st13" style="fill: rgb(44, 51, 52);" transform="matrix(1, 0, 0, 0.9999999999999999, 0, 0)"/>
<path d="M 65.800003 186.199997 L 92 185.5 L 93.599998 193.100006 L 64.900002 190.100006" class="st13" style="fill: rgb(44, 51, 52);" transform="matrix(1, 0, 0, 0.9999999999999999, 0, 0)"/>
<path d="M 71.900002 160.399994 L 86.5 161.199997 L 87.5 165.600006 L 70.699997 166.5" class="st13" style="fill: rgb(44, 51, 52);" transform="matrix(1, 0, 0, 0.9999999999999999, 0, 0)"/>
<path d="M 102.69999694824219 235.10000610351562 L 79.5999984741211 129.1999969482422 L 94.30000305175781 235.10000610351562 Z" class="st9" style="fill: rgb(255, 255, 255); opacity: 0.2;" transform="matrix(1, 0, 0, 0.9999999999999999, 0, 0)"/>
<g transform="matrix(1, 0, 0, 0.9999999999999999, 0, 0)" style="opacity: 0.3;">
		<path d="M 199.600006 214.699997 A 4 1.7 0 0 1 195.600006 216.399997 A 4 1.7 0 0 1 191.600006 214.699997 A 4 1.7 0 0 1 195.600006 212.999997 A 4 1.7 0 0 1 199.600006 214.699997 Z" class="st12" style="fill: rgb(72, 83, 83);"/>
	</g><path d="M 186.800006 219.300003 A 2.2 0.9 0 0 1 184.600006 220.200003 A 2.2 0.9 0 0 1 182.400006 219.300003 A 2.2 0.9 0 0 1 184.600006 218.400003 A 2.2 0.9 0 0 1 186.800006 219.300003 Z" class="st12" style="fill: rgb(72, 83, 83); opacity: 0.5;" transform="matrix(1, 0, 0, 0.9999999999999999, 0, 0)"/><path d="M 193.899997 224.800003 A 2.2 0.9 0 0 1 191.699997 225.700003 A 2.2 0.9 0 0 1 189.499997 224.800003 A 2.2 0.9 0 0 1 191.699997 223.900003 A 2.2 0.9 0 0 1 193.899997 224.800003 Z" class="st12" style="fill: rgb(72, 83, 83); opacity: 0.3;" transform="matrix(1, 0, 0, 0.9999999999999999, 0, 0)"/><path d="M 222.000003 216.600006 A 2.2 0.9 0 0 1 219.800003 217.500006 A 2.2 0.9 0 0 1 217.600003 216.600006 A 2.2 0.9 0 0 1 219.800003 215.700006 A 2.2 0.9 0 0 1 222.000003 216.600006 Z" class="st12" style="fill: rgb(72, 83, 83); opacity: 0.3;" transform="matrix(1, 0, 0, 0.9999999999999999, 0, 0)"/><path d="M 178.100006 225.399994 A 1.5 0.6 0 0 1 176.600006 225.999994 A 1.5 0.6 0 0 1 175.100006 225.399994 A 1.5 0.6 0 0 1 176.600006 224.799994 A 1.5 0.6 0 0 1 178.100006 225.399994 Z" class="st12" style="fill: rgb(72, 83, 83); opacity: 0.3;" transform="matrix(1, 0, 0, 0.9999999999999999, 0, 0)"/><path d="M 207 214.699997 A 1.5 0.6 0 0 1 205.5 215.299997 A 1.5 0.6 0 0 1 204 214.699997 A 1.5 0.6 0 0 1 205.5 214.099997 A 1.5 0.6 0 0 1 207 214.699997 Z" class="st12" style="fill: rgb(72, 83, 83); opacity: 0.5;" transform="matrix(1, 0, 0, 0.9999999999999999, 0, 0)"/><path d="M 203.800003 223.199997 A 1.5 0.6 0 0 1 202.300003 223.799997 A 1.5 0.6 0 0 1 200.800003 223.199997 A 1.5 0.6 0 0 1 202.300003 222.599997 A 1.5 0.6 0 0 1 203.800003 223.199997 Z" class="st12" style="fill: rgb(72, 83, 83); opacity: 0.5;" transform="matrix(1, 0, 0, 0.9999999999999999, 0, 0)"/><path d="M 227.5 226.800003 A 1.5 0.6 0 0 1 226 227.400003 A 1.5 0.6 0 0 1 224.5 226.800003 A 1.5 0.6 0 0 1 226 226.200003 A 1.5 0.6 0 0 1 227.5 226.800003 Z" class="st12" style="fill: rgb(72, 83, 83); opacity: 0.5;" transform="matrix(1, 0, 0, 0.9999999999999999, 0, 0)"/><path d="M 216.300003 227.300003 A 4 1.7 0 0 1 212.300003 229.000003 A 4 1.7 0 0 1 208.300003 227.300003 A 4 1.7 0 0 1 212.300003 225.600003 A 4 1.7 0 0 1 216.300003 227.300003 Z" class="st12" style="fill: rgb(72, 83, 83); opacity: 0.3;" transform="matrix(1, 0, 0, 0.9999999999999999, 0, 0)"/><path d="M 216.300003 208.800003 A 2 0.8 0 0 1 214.300003 209.600003 A 2 0.8 0 0 1 212.300003 208.800003 A 2 0.8 0 0 1 214.300003 208.000003 A 2 0.8 0 0 1 216.300003 208.800003 Z" class="st12" style="fill: rgb(72, 83, 83); opacity: 0.3;" transform="matrix(1, 0, 0, 0.9999999999999999, 0, 0)"/>
<g transform="matrix(1, 0, 0, 0.9999999999999999, 0, 0)" style="opacity: 0.3;">
		<path d="M 304.5 143.600006 A 4 1.7 0 0 1 300.5 145.300006 A 4 1.7 0 0 1 296.5 143.600006 A 4 1.7 0 0 1 300.5 141.900006 A 4 1.7 0 0 1 304.5 143.600006 Z" class="st12" style="fill: rgb(72, 83, 83);"/>
	</g><path d="M 298.800006 153.800003 A 2.2 0.9 0 0 1 296.600006 154.700003 A 2.2 0.9 0 0 1 294.400006 153.800003 A 2.2 0.9 0 0 1 296.600006 152.900003 A 2.2 0.9 0 0 1 298.800006 153.800003 Z" class="st12" style="fill: rgb(72, 83, 83); opacity: 0.3;" transform="matrix(1, 0, 0, 0.9999999999999999, 0, 0)"/><path d="M 326.900012 145.5 A 2.2 0.9 0 0 1 324.700012 146.4 A 2.2 0.9 0 0 1 322.500012 145.5 A 2.2 0.9 0 0 1 324.700012 144.6 A 2.2 0.9 0 0 1 326.900012 145.5 Z" class="st12" style="fill: rgb(72, 83, 83); opacity: 0.3;" transform="matrix(1, 0, 0, 0.9999999999999999, 0, 0)"/><path d="M 311.899994 143.600006 A 1.5 0.6 0 0 1 310.399994 144.200006 A 1.5 0.6 0 0 1 308.899994 143.600006 A 1.5 0.6 0 0 1 310.399994 143.000006 A 1.5 0.6 0 0 1 311.899994 143.600006 Z" class="st12" style="fill: rgb(72, 83, 83); opacity: 0.5;" transform="matrix(1, 0, 0, 0.9999999999999999, 0, 0)"/><path d="M 308.700012 152.199997 A 1.5 0.6 0 0 1 307.200012 152.799997 A 1.5 0.6 0 0 1 305.700012 152.199997 A 1.5 0.6 0 0 1 307.200012 151.599997 A 1.5 0.6 0 0 1 308.700012 152.199997 Z" class="st12" style="fill: rgb(72, 83, 83); opacity: 0.5;" transform="matrix(1, 0, 0, 0.9999999999999999, 0, 0)"/><path d="M 332.5 155.699997 A 1.5 0.6 0 0 1 331 156.299997 A 1.5 0.6 0 0 1 329.5 155.699997 A 1.5 0.6 0 0 1 331 155.099997 A 1.5 0.6 0 0 1 332.5 155.699997 Z" class="st12" style="fill: rgb(72, 83, 83); opacity: 0.5;" transform="matrix(1, 0, 0, 0.9999999999999999, 0, 0)"/><path d="M 321.200012 156.199997 A 4 1.7 0 0 1 317.200012 157.899997 A 4 1.7 0 0 1 313.200012 156.199997 A 4 1.7 0 0 1 317.200012 154.499997 A 4 1.7 0 0 1 321.200012 156.199997 Z" class="st12" style="fill: rgb(72, 83, 83); opacity: 0.3;" transform="matrix(1, 0, 0, 0.9999999999999999, 0, 0)"/><path d="M 321.200012 137.699997 A 2 0.8 0 0 1 319.200012 138.499997 A 2 0.8 0 0 1 317.200012 137.699997 A 2 0.8 0 0 1 319.200012 136.899997 A 2 0.8 0 0 1 321.200012 137.699997 Z" class="st12" style="fill: rgb(72, 83, 83); opacity: 0.3;" transform="matrix(1, 0, 0, 0.9999999999999999, 0, 0)"/>
<g transform="matrix(1, 0, 0, 0.9999999999999999, 0, 0)" style="opacity: 0.3;">
		<path d="M 32.4 196.199997 A 4 1.7 0 0 1 28.4 197.899997 A 4 1.7 0 0 1 24.4 196.199997 A 4 1.7 0 0 1 28.4 194.499997 A 4 1.7 0 0 1 32.4 196.199997 Z" class="st12" style="fill: rgb(72, 83, 83);"/>
	</g><path d="M 19.7 200.800003 A 2.2 0.9 0 0 1 17.5 201.700003 A 2.2 0.9 0 0 1 15.3 200.800003 A 2.2 0.9 0 0 1 17.5 199.900003 A 2.2 0.9 0 0 1 19.7 200.800003 Z" class="st12" style="fill: rgb(72, 83, 83); opacity: 0.5;" transform="matrix(1, 0, 0, 0.9999999999999999, 0, 0)"/><path d="M 26.8 206.300003 A 2.2 0.9 0 0 1 24.6 207.200003 A 2.2 0.9 0 0 1 22.4 206.300003 A 2.2 0.9 0 0 1 24.6 205.400003 A 2.2 0.9 0 0 1 26.8 206.300003 Z" class="st12" style="fill: rgb(72, 83, 83); opacity: 0.3;" transform="matrix(1, 0, 0, 0.9999999999999999, 0, 0)"/><path d="M 54.900001 198.100006 A 2.2 0.9 0 0 1 52.700001 199.000006 A 2.2 0.9 0 0 1 50.500001 198.100006 A 2.2 0.9 0 0 1 52.700001 197.200006 A 2.2 0.9 0 0 1 54.900001 198.100006 Z" class="st12" style="fill: rgb(72, 83, 83); opacity: 0.3;" transform="matrix(1, 0, 0, 0.9999999999999999, 0, 0)"/><path d="M 10.9 206.800003 A 1.5 0.6 0 0 1 9.4 207.400003 A 1.5 0.6 0 0 1 7.9 206.800003 A 1.5 0.6 0 0 1 9.4 206.200003 A 1.5 0.6 0 0 1 10.9 206.800003 Z" class="st12" style="fill: rgb(72, 83, 83); opacity: 0.3;" transform="matrix(1, 0, 0, 0.9999999999999999, 0, 0)"/><path d="M 39.900002 196.199997 A 1.5 0.6 0 0 1 38.400002 196.799997 A 1.5 0.6 0 0 1 36.900002 196.199997 A 1.5 0.6 0 0 1 38.400002 195.599997 A 1.5 0.6 0 0 1 39.900002 196.199997 Z" class="st12" style="fill: rgb(72, 83, 83); opacity: 0.5;" transform="matrix(1, 0, 0, 0.9999999999999999, 0, 0)"/><path d="M 36.700001 204.699997 A 1.5 0.6 0 0 1 35.200001 205.299997 A 1.5 0.6 0 0 1 33.700001 204.699997 A 1.5 0.6 0 0 1 35.200001 204.099997 A 1.5 0.6 0 0 1 36.700001 204.699997 Z" class="st12" style="fill: rgb(72, 83, 83); opacity: 0.5;" transform="matrix(1, 0, 0, 0.9999999999999999, 0, 0)"/><path d="M 60.400002 208.300003 A 1.5 0.6 0 0 1 58.900002 208.900003 A 1.5 0.6 0 0 1 57.400002 208.300003 A 1.5 0.6 0 0 1 58.900002 207.700003 A 1.5 0.6 0 0 1 60.400002 208.300003 Z" class="st12" style="fill: rgb(72, 83, 83); opacity: 0.5;" transform="matrix(1, 0, 0, 0.9999999999999999, 0, 0)"/><path d="M 49.099998 208.699997 A 4 1.7 0 0 1 45.099998 210.399997 A 4 1.7 0 0 1 41.099998 208.699997 A 4 1.7 0 0 1 45.099998 206.999997 A 4 1.7 0 0 1 49.099998 208.699997 Z" class="st12" style="fill: rgb(72, 83, 83); opacity: 0.3;" transform="matrix(1, 0, 0, 0.9999999999999999, 0, 0)"/><path d="M 49.200001 190.199997 A 2 0.8 0 0 1 47.200001 190.999997 A 2 0.8 0 0 1 45.200001 190.199997 A 2 0.8 0 0 1 47.200001 189.399997 A 2 0.8 0 0 1 49.200001 190.199997 Z" class="st12" style="fill: rgb(72, 83, 83); opacity: 0.3;" transform="matrix(1, 0, 0, 0.9999999999999999, 0, 0)"/>



<path d="M 275.8999938964844 81.5 L 238.5 117.4000015258789 L 185.10000610351562 122.80000305175781 L 183.6999969482422 121.0999984741211 L 194.3000030517578 117.4000015258789 L 176.6999969482422 95.9000015258789 L 169.39999389648438 103.9000015258789 L 150.8000030517578 81.5 L 119.69999694824219 120.19999694824219 L 70.9000015258789 120.19999694824219 L 29 94.9000015258789 L 0.10000000149011612 117.4000015258789 L 0.10000000149011612 139.5 L 311.70001220703125 122.80000305175781 Z" class="st3" style="fill: rgb(77, 88, 88); opacity: 0.1;" transform="matrix(1, 0, 0, 0.9999999999999999, 0, 0)"/><path class="st6" d="M223.6,153.6c-12.5-1.5-24.7-5.2-36.6-9.3c-2.5-0.8-3.1-3.3-2.5-5.3c-3.4-1.1-6.7-2.3-10.1-3.6&#10;&#9;&#9;c-14.3-5.5-28-12.6-41.6-19.7c-12.3-6.4-22.1-15.9-32.2-25.2c-0.5-0.5-0.8-1-1-1.5c-0.3-0.2-0.4-0.3-0.4-0.3&#10;&#9;&#9;c-53.3,34.7-99.3,39-99.3,39v80.9l234.6-54.5C230.7,154.2,227.1,154,223.6,153.6z" style="fill: rgb(104, 192, 174);" transform="matrix(1, 0, 0, 0.9999999999999999, 0, 0)"/><path class="st7" d="M99.1,88.9c0,0,29.1,81.8-8.1,113.9l175.5-47.3C266.5,155.5,172.4,148.8,99.1,88.9z" style="fill: rgb(91, 159, 144);" transform="matrix(1, 0, 0, 0.9999999999999999, 0, 0)"/><g transform="matrix(1, 0, 0, 0.9999999999999999, 0, 0)">
		<path d="M 116.0999984741211 88.9000015258789 L 112.80000305175781 102.9000015258789 L 119.19999694824219 102.9000015258789 Z" class="st7" style="fill: rgb(91, 159, 144);"/>
	</g><path d="M 116.099998 88.900002 L 118.099998 102.900002 L 119.199997 102.900002" class="st7" style="fill: rgb(91, 159, 144); opacity: 0.2;" transform="matrix(1, 0, 0, 0.9999999999999999, 0, 0)"/></svg>