<?xml version="1.0" encoding="iso-8859-1"?>
<!-- Generator: Adobe Illustrator 19.0.0, SVG Export Plug-In . SVG Version: 6.00 Build 0)  -->
<svg version="1.1" id="Capa_1" xmlns="http://www.w3.org/2000/svg" xmlns:xlink="http://www.w3.org/1999/xlink" x="0px" y="0px"
	 viewBox="0 0 512 512" style="enable-background:new 0 0 512 512;" xml:space="preserve">
<rect x="7.5" y="200.16" style="fill:#D8D7DA;" width="156.15" height="304.34"/>
<rect x="7.5" y="200.16" style="fill:#ACABB1;" width="36.47" height="304.34"/>
<rect x="318.14" y="306.65" style="fill:#FFC477;" width="113.04" height="197.85"/>
<rect x="318.14" y="306.65" style="fill:#FFA733;" width="37.39" height="197.85"/>
<rect x="454.5" y="256" style="fill:#ADDFBB;" width="50" height="50.654"/>
<rect x="454.5" y="256" style="fill:#7CCC92;" width="20.5" height="50.654"/>
<rect x="454.5" y="306.65" style="fill:#FFC477;" width="50" height="197.85"/>
<rect x="454.5" y="306.65" style="fill:#FFA733;" width="20.5" height="197.85"/>
<rect x="295.64" y="256" style="fill:#ADDFBB;" width="135.54" height="50.654"/>
<rect x="295.64" y="256" style="fill:#7CCC92;" width="42.39" height="50.654"/>
<g>
	<rect x="7.5" y="281.33" style="fill:#45A2FF;" width="95.57" height="107.82"/>
	<rect x="7.5" y="458.09" style="fill:#45A2FF;" width="95.57" height="46.41"/>
</g>
<g>
	<rect x="7.5" y="281.33" style="fill:#2488FF;" width="28.716" height="107.82"/>
	<rect x="7.5" y="458.09" style="fill:#2488FF;" width="28.716" height="46.41"/>
</g>
<path style="fill:#45A2FF;" d="M38.201,43.556H61.32l3.898-11.543c3.423-2.457,5.882-4.222,9.305-6.679h15.684
	c3.423,2.457,5.882,4.222,9.305,6.679l3.898,11.543h11.389c4.581,4.581,7.149,7.149,11.73,11.73v17.38H26.47v-17.38
	C31.051,50.705,33.62,48.137,38.201,43.556z"/>
<rect x="431.18" y="231.24" style="fill:#D8D7DA;" width="23.32" height="273.26"/>
<path style="fill:#FF456D;" d="M311.852,167.182v-62.091l18.26,18.26c2.266,2.265,5.293,3.468,8.375,3.468
	c1.524,0,3.063-0.295,4.528-0.902c4.424-1.833,7.309-6.15,7.309-10.938V76.367h-23.68v10.029l-10.238-10.238l-63.753-0.351v0.029
	H214.85c-6.539,0-11.84,5.301-11.84,11.84v38.612h23.679V99.516h25.964v105.309h-32.762v23.679h56.441v-56.392h6.961l71.388,71.388
	l16.744-16.744L311.852,167.182z"/>
<g>
	<polygon style="fill:#FF0C38;" points="341.417,86.395 341.417,76.367 331.388,76.367 	"/>
	<path style="fill:#FF0C38;" d="M326.625,119.864l3.487,3.487c2.266,2.265,5.293,3.468,8.375,3.468c1.524,0,3.063-0.295,4.528-0.902
		c1.045-0.433,2-1.008,2.856-1.692c-0.341-0.273-0.672-0.561-0.986-0.875l-18.26-18.26V119.864z"/>
	<polygon style="fill:#FF0C38;" points="252.654,75.807 252.654,75.836 258.015,75.836 	"/>
	<rect x="252.65" y="99.52" style="fill:#FF0C38;" width="14.772" height="105.31"/>
	<path style="fill:#FF0C38;" d="M229.623,75.836H214.85c-6.539,0-11.84,5.301-11.84,11.84v38.612h14.773V87.676
		C217.783,81.137,223.084,75.836,229.623,75.836z"/>
	<polygon style="fill:#FF0C38;" points="298.067,172.112 291.106,172.112 291.106,179.924 354.682,243.5 362.068,236.114 	"/>
	<rect x="219.89" y="204.82" style="fill:#FF0C38;" width="14.772" height="23.68"/>
</g>
<circle style="fill:#FFC477;" cx="282.25" cy="41.653" r="34.15"/>
<path style="fill:#FFA733;" d="M267.426,41.653c0-15.505,10.336-28.589,24.49-32.758c-3.065-0.903-6.306-1.396-9.663-1.396
	c-18.862,0-34.153,15.291-34.153,34.153s15.291,34.153,34.153,34.153c3.357,0,6.598-0.493,9.663-1.395
	C277.762,70.242,267.426,57.158,267.426,41.653z"/>
<rect x="434.33" y="7.5" style="fill:#45A2FF;" width="70.17" height="140.83"/>
<rect x="434.33" y="7.5" style="fill:#2488FF;" width="35.08" height="140.83"/>
<g>
	<polygon style="fill:#FF456D;" points="461.667,256 454.5,256 454.5,231.237 440.333,231.237 440.333,148.333 461.667,148.333 	"/>
	<polygon style="fill:#FF456D;" points="504.5,202.487 461.667,159.653 461.667,188.403 504.5,231.237 	"/>
</g>
<g>
	<rect x="454.5" y="335.24" style="fill:#D8D7DA;" width="50" height="23.667"/>
	<rect x="454.5" y="434.42" style="fill:#D8D7DA;" width="50" height="23.667"/>
</g>
<g>
	<path style="fill:#1D1D1F;" d="M0,512h171.148V192.66H0V512z M15,288.827h80.568v92.823H15V288.827z M15,497v-31.412h80.568V497H15
		z M156.148,207.66v19.84H69v15h87.148V497h-45.58v-46.412H15V396.65h95.568V273.827H15V207.66H156.148z"/>
	<polygon style="fill:#1D1D1F;" points="303.142,299.154 303.142,263.5 411.18,263.5 411.18,248.5 288.142,248.5 288.142,314.154 
		310.641,314.154 310.641,512 411.18,512 411.18,497 325.641,497 325.641,351.5 362,351.5 362,336.5 325.641,336.5 325.641,314.154 
		411.18,314.154 411.18,299.154 	"/>
	<path style="fill:#1D1D1F;" d="M134.03,52.18l-16.124-16.124h-9.112l-2.948-8.729l-13.225-9.493H72.11l-13.225,9.493l-2.948,8.729
		H35.094L18.97,52.18v27.987h115.06V52.18z M119.03,65.167H33.97v-6.774l7.337-7.337h25.396l4.849-14.357l5.384-3.865h10.858
		l5.384,3.865l4.849,14.357h13.666l7.337,7.337C119.03,58.393,119.03,65.167,119.03,65.167z"/>
	<rect x="367.92" y="470.83" style="fill:#1D1D1F;" width="15" height="15"/>
	<rect x="392.92" y="470.83" style="fill:#1D1D1F;" width="14.75" height="15"/>
	<rect x="342.92" y="470.83" style="fill:#1D1D1F;" width="15" height="15"/>
	<rect x="405.53" y="273.83" style="fill:#1D1D1F;" width="14.526" height="15"/>
	<rect x="380.53" y="273.83" style="fill:#1D1D1F;" width="15" height="15"/>
	<rect x="355.53" y="273.83" style="fill:#1D1D1F;" width="15" height="15"/>
	<rect x="330.53" y="273.83" style="fill:#1D1D1F;" width="15" height="15"/>
	<rect x="126.17" y="439.15" style="fill:#1D1D1F;" width="15" height="15"/>
	<rect x="126.17" y="414.15" style="fill:#1D1D1F;" width="15" height="15"/>
	<rect x="126.17" y="389.15" style="fill:#1D1D1F;" width="15" height="15"/>
	<rect x="132.04" y="158.17" style="fill:#1D1D1F;" width="15" height="15"/>
	<rect x="107.04" y="158.17" style="fill:#1D1D1F;" width="15" height="15"/>
	<rect x="157.04" y="158.17" style="fill:#1D1D1F;" width="41.36" height="15"/>
	<rect x="163.48" y="119.5" style="fill:#1D1D1F;" width="17.565" height="15"/>
	<rect x="88.48" y="119.5" style="fill:#1D1D1F;" width="60" height="15"/>
	<path style="fill:#1D1D1F;" d="M512,155.833V0h-85.167v155.833h6v55.403h15v-55.403h6.333v56.07h15v-5.394l41.99,41.99H474.5v15
		H497v35.654h-22.5v15H497v13.584h-35v-104h-38.32V512H462v-46.412h35V497h-22.5v15H512V199.38l-42.833-42.833v-0.713H512V155.833z
		 M497,342.739v8.667h-35v-8.667H497z M447,497h-8.32V238.737H447V497z M462,450.588v-8.667h35v8.667H462z M497,426.922h-35v-60.517
		h35V426.922z M441.833,140.833V15H497v125.833L441.833,140.833L441.833,140.833z M497,205.593v7.537l-27.833-27.833v-7.537
		L497,205.593z"/>
	<path style="fill:#1D1D1F;" d="M352.485,230.697L286.4,164.612h-17.567v56.392h-41.441v-8.68h32.762V92.016H219.19v26.772h-8.68
		V87.676c0-2.393,1.947-4.34,4.342-4.34l98.098-0.028l21.194,21.194V83.307h8.68v31.672c0,1.761-1.052,3.335-2.68,4.01
		c-1.603,0.664-3.505,0.282-4.729-0.941l-31.063-31.064v83.305l56.467,56.467l-3.941,3.941l10.606,10.606l14.547-14.547
		l-62.68-62.68v-40.877l5.457,5.457c3.654,3.652,8.51,5.664,13.675,5.664h0.003c2.55,0,5.04-0.496,7.397-1.472
		c7.253-3.004,11.939-10.018,11.939-17.868V68.307h-43.591c6.035-7.228,9.674-16.523,9.674-26.654
		C323.907,18.686,305.221,0,282.253,0S240.6,18.686,240.6,41.653c0,10.14,3.646,19.441,9.69,26.672l-35.44,0.01
		c-10.664,0-19.34,8.676-19.34,19.34v46.112h38.68v-26.772h10.964v90.309h-32.762v38.68h71.441v-52.746l58.045,58.045
		L352.485,230.697z M282.253,15c14.697,0,26.653,11.957,26.653,26.653s-11.957,26.653-26.653,26.653S255.6,56.35,255.6,41.653
		S267.557,15,282.253,15z"/>
</g>
<g>
	<path style="fill:#FFFFFF;" d="M84,373.579H69v-26.681h15V373.579z M84,336.898H69v-15h15V336.898z M84,311.898H69v-15h15V311.898z
		"/>
	<path style="fill:#FFFFFF;" d="M464.711,122.823h-15V83.01h15V122.823z M464.711,73.01h-15v-15h15V73.01z M464.711,48.01h-15v-15
		h15V48.01z"/>
</g>
<g>
</g>
<g>
</g>
<g>
</g>
<g>
</g>
<g>
</g>
<g>
</g>
<g>
</g>
<g>
</g>
<g>
</g>
<g>
</g>
<g>
</g>
<g>
</g>
<g>
</g>
<g>
</g>
<g>
</g>
</svg>
